<svg width="449" height="455" viewBox="0 0 449 455" fill="none" xmlns="http://www.w3.org/2000/svg">
<g clip-path="url(#clip0_11_263)">
<path d="M663.435 167.198L490.938 202.659C380.843 225.292 298.298 316.954 287.282 428.811V428.811C275.236 551.129 178.129 647.719 55.7483 659.113L-54.423 669.37" stroke="#463201" stroke-width="2" stroke-linecap="round"/>
<path d="M633.615 146.201L461.118 181.662C351.023 204.295 268.478 295.957 257.462 407.814V407.814C245.416 530.133 148.309 626.722 25.9282 638.116L-84.2431 648.374" stroke="#463201" stroke-width="2" stroke-linecap="round"/>
<path d="M603.795 125.205L431.298 160.666C321.202 183.299 238.658 274.961 227.642 386.818V386.818C215.595 509.136 118.489 605.726 -3.89231 617.12L-114.064 627.377" stroke="#463201" stroke-width="2" stroke-linecap="round"/>
<path d="M573.974 104.208L401.477 139.669C291.381 162.302 208.837 253.964 197.821 365.821V365.821C185.774 488.14 88.6681 584.729 -33.7129 596.123L-143.884 606.381" stroke="#463201" stroke-width="2" stroke-linecap="round"/>
<path d="M544.154 83.2119L371.657 118.673C261.561 141.306 179.017 232.968 168 344.825V344.825C155.954 467.143 58.8476 563.733 -63.5334 575.127L-173.705 585.384" stroke="#463201" stroke-width="2" stroke-linecap="round"/>
<path d="M514.333 62.2154L341.836 97.6765C231.74 120.309 149.196 211.971 138.18 323.828V323.828C126.133 446.147 29.027 542.736 -93.354 554.13L-203.525 564.388" stroke="#463201" stroke-width="2" stroke-linecap="round"/>
<path d="M484.512 41.2188L312.016 76.6799C201.92 99.3129 119.376 190.975 108.359 302.832V302.832C96.3127 425.15 -0.793544 521.74 -123.175 533.134L-233.346 543.391" stroke="#463201" stroke-width="2" stroke-linecap="round"/>
</g>
<defs>
<clipPath id="clip0_11_263">
<rect width="449" height="455" fill="white"/>
</clipPath>
</defs>
</svg>
