<svg width="30" height="23" viewBox="0 0 30 23" fill="none" xmlns="http://www.w3.org/2000/svg">
<path d="M2.33364 22.5H27.9063C28.7854 22.5 29.5046 21.675 29.5046 20.6667C29.5046 19.6583 28.7854 18.8333 27.9063 18.8333H2.33364C1.45458 18.8333 0.735352 19.6583 0.735352 20.6667C0.735352 21.675 1.45458 22.5 2.33364 22.5ZM2.33364 13.3333H27.9063C28.7854 13.3333 29.5046 12.5083 29.5046 11.5C29.5046 10.4917 28.7854 9.66667 27.9063 9.66667H2.33364C1.45458 9.66667 0.735352 10.4917 0.735352 11.5C0.735352 12.5083 1.45458 13.3333 2.33364 13.3333ZM0.735352 2.33333C0.735352 3.34167 1.45458 4.16667 2.33364 4.16667H27.9063C28.7854 4.16667 29.5046 3.34167 29.5046 2.33333C29.5046 1.325 28.7854 0.5 27.9063 0.5H2.33364C1.45458 0.5 0.735352 1.325 0.735352 2.33333Z" fill="white"/>
</svg>
