<svg width="561" height="329" viewBox="0 0 561 329" fill="none" xmlns="http://www.w3.org/2000/svg">
<g clip-path="url(#clip0_5_168)">
<path d="M-213.188 -319L-128.276 -113.242C-74.0813 18.0818 59.2853 98.838 200.772 86.0029V86.0029C355.49 71.9673 498.427 169.635 541.58 318.876L580.427 453.227" stroke="#463201" stroke-width="2" stroke-linecap="round"/>
<path d="M-232.188 -277L-147.276 -71.2424C-93.0813 60.0818 40.2853 140.838 181.772 128.003V128.003C336.49 113.967 479.427 211.635 522.58 360.876L561.427 495.227" stroke="#463201" stroke-width="2" stroke-linecap="round"/>
<path d="M-251.188 -235L-166.276 -29.2424C-112.081 102.082 21.2853 182.838 162.772 170.003V170.003C317.49 155.967 460.427 253.635 503.58 402.876L542.427 537.227" stroke="#463201" stroke-width="2" stroke-linecap="round"/>
<path d="M-270.188 -193L-185.276 12.7576C-131.081 144.082 2.28531 224.838 143.772 212.003V212.003C298.49 197.967 441.427 295.635 484.58 444.876L523.427 579.227" stroke="#463201" stroke-width="2" stroke-linecap="round"/>
<path d="M-289.188 -151L-204.276 54.7576C-150.081 186.082 -16.7147 266.838 124.772 254.003V254.003C279.49 239.967 422.427 337.635 465.58 486.876L504.427 621.227" stroke="#463201" stroke-width="2" stroke-linecap="round"/>
<path d="M-308.188 -109L-223.276 96.7576C-169.081 228.082 -35.7147 308.838 105.772 296.003V296.003C260.49 281.967 403.427 379.635 446.58 528.876L485.427 663.227" stroke="#463201" stroke-width="2" stroke-linecap="round"/>
<path d="M-327.188 -67L-242.276 138.758C-188.081 270.082 -54.7147 350.838 86.7716 338.003V338.003C241.49 323.967 384.427 421.635 427.58 570.876L466.427 705.227" stroke="#463201" stroke-width="2" stroke-linecap="round"/>
</g>
<defs>
<clipPath id="clip0_5_168">
<rect width="561" height="329" fill="white"/>
</clipPath>
</defs>
</svg>
